<svg width="20" height="20" viewBox="0 0 20 20" fill="#d1d1d1" xmlns="http://www.w3.org/2000/svg">
<path d="M19.9529 10C19.9529 15.5228 15.4863 20 9.97643 20C4.4666 20 0 15.5228 0 10C0 4.47715 4.4666 0 9.97643 0C15.4863 0 19.9529 4.47715 19.9529 10Z" fill="#8D8D8D"/>
<path d="M7.17065 0.46875H12.9383L12.1589 3.75H7.95006L7.17065 0.46875Z" fill="white"/>
<path d="M18.2336 4.375L19.9377 9.84375L16.6618 10.1442L15.3612 6.13197L18.2336 4.375Z" fill="white"/>
<path d="M1.78223 4.375L-6.80518e-05 9.8733L3.35408 10.1442L4.65468 6.13198L1.78223 4.375Z" fill="white"/>
<path d="M17.8342 16.0879L13.1681 19.486L11.8746 16.3722L15.2795 13.8925L17.8342 16.0879Z" fill="white"/>
<path d="M2.18164 16.0879L6.84775 19.486L8.14132 16.3722L4.73632 13.8925L2.18164 16.0879Z" fill="white"/>
<path fill-rule="evenodd" clip-rule="evenodd" d="M9.97643 18.8406C14.8434 18.8406 18.7934 14.8851 18.7934 10C18.7934 5.1149 14.8434 1.15942 9.97643 1.15942C5.10951 1.15942 1.15942 5.1149 1.15942 10C1.15942 14.8851 5.10951 18.8406 9.97643 18.8406ZM9.97643 20C15.4863 20 19.9529 15.5228 19.9529 10C19.9529 4.47715 15.4863 0 9.97643 0C4.4666 0 0 4.47715 0 10C0 15.5228 4.4666 20 9.97643 20Z" fill="#8D8D8D"/>
<path fill-rule="evenodd" clip-rule="evenodd" d="M9.97623 15.7156C13.1213 15.7156 15.6756 13.1592 15.6756 10C15.6756 6.84079 13.1213 4.28442 9.97623 4.28442C6.83113 4.28442 4.27685 6.84079 4.27685 10C4.27685 13.1592 6.83113 15.7156 9.97623 15.7156ZM9.97623 16.875C13.7642 16.875 16.835 13.797 16.835 10C16.835 6.20304 13.7642 3.125 9.97623 3.125C6.18822 3.125 3.11743 6.20304 3.11743 10C3.11743 13.797 6.18822 16.875 9.97623 16.875Z" fill="#8D8D8D"/>
<path d="M16.2118 10C16.2118 13.4518 13.4201 16.25 9.97648 16.25C6.53284 16.25 3.74121 13.4518 3.74121 10C3.74121 6.54822 6.53284 3.75 9.97648 3.75C13.4201 3.75 16.2118 6.54822 16.2118 10Z" fill="white"/>
<path d="M15.5882 10C15.5882 13.1066 13.0758 15.625 9.97649 15.625C6.87721 15.625 4.36475 13.1066 4.36475 10C4.36475 6.8934 6.87721 4.375 9.97649 4.375C13.0758 4.375 15.5882 6.8934 15.5882 10Z" fill="white"/>
<path fill-rule="evenodd" clip-rule="evenodd" d="M9.97649 14.4656C12.4329 14.4656 14.4288 12.4689 14.4288 10C14.4288 7.53115 12.4329 5.53442 9.97649 5.53442C7.52012 5.53442 5.52417 7.53115 5.52417 10C5.52417 12.4689 7.52012 14.4656 9.97649 14.4656ZM9.97649 15.625C13.0758 15.625 15.5882 13.1066 15.5882 10C15.5882 6.8934 13.0758 4.375 9.97649 4.375C6.87721 4.375 4.36475 6.8934 4.36475 10C4.36475 13.1066 6.87721 15.625 9.97649 15.625Z" fill="#8D8D8D"/>
</svg>
