<svg width="166" height="35" viewBox="0 0 166 35" fill="none" xmlns="http://www.w3.org/2000/svg">
<path d="M166 16.7645C165.221 16.7645 164.517 16.8923 163.886 17.1479C163.255 17.3901 162.799 17.7533 162.517 18.2377V24.5944H159.297V13.9998H162.256V16.1389C162.618 15.4259 163.088 14.8676 163.665 14.464C164.242 14.0604 164.846 13.8518 165.476 13.8384H165.798C165.879 13.8384 165.946 13.8451 166 13.8586V16.7645Z" fill="#d1d1d1"/>
<path d="M166 16.7645C165.221 16.7645 164.517 16.8923 163.886 17.1479C163.255 17.3901 162.799 17.7533 162.517 18.2377V24.5944H159.297V13.9998H162.256V16.1389C162.618 15.4259 163.088 14.8676 163.665 14.464C164.242 14.0604 164.846 13.8518 165.476 13.8384H165.798C165.879 13.8384 165.946 13.8451 166 13.8586V16.7645Z" stroke="none"/>
<path d="M150.591 24.7963C149.691 24.7963 148.893 24.655 148.195 24.3725C147.497 24.0765 146.9 23.6797 146.404 23.1819C145.921 22.6841 145.551 22.1123 145.297 21.4666C145.042 20.8073 144.914 20.1212 144.914 19.4082C144.914 18.3857 145.135 17.4574 145.578 16.6233C146.035 15.7758 146.685 15.0964 147.531 14.5851C148.376 14.0604 149.396 13.7981 150.591 13.7981C151.785 13.7981 152.798 14.0537 153.63 14.5649C154.475 15.0762 155.12 15.7488 155.562 16.583C156.005 17.4036 156.227 18.2983 156.227 19.2669C156.227 19.4553 156.213 19.6436 156.186 19.832C156.173 20.0069 156.16 20.1616 156.146 20.2961H148.336C148.376 20.767 148.504 21.1639 148.718 21.4867C148.947 21.8096 149.235 22.0585 149.584 22.2334C149.933 22.3949 150.302 22.4756 150.691 22.4756C151.174 22.4756 151.624 22.3612 152.04 22.1325C152.469 21.9038 152.764 21.5944 152.926 21.2042L155.663 21.9711C155.395 22.5227 155.012 23.0137 154.516 23.4442C154.033 23.8613 153.456 24.1909 152.785 24.4331C152.127 24.6752 151.396 24.7963 150.591 24.7963ZM148.256 18.3185H152.845C152.791 17.8745 152.664 17.4911 152.463 17.1682C152.261 16.8318 151.993 16.5762 151.657 16.4013C151.322 16.213 150.953 16.1188 150.55 16.1188C150.134 16.1188 149.759 16.213 149.423 16.4013C149.101 16.5762 148.839 16.8318 148.638 17.1682C148.437 17.4911 148.309 17.8745 148.256 18.3185Z" fill="#D1D1D1"/>
<path d="M150.591 24.7963C149.691 24.7963 148.893 24.655 148.195 24.3725C147.497 24.0765 146.9 23.6797 146.404 23.1819C145.921 22.6841 145.551 22.1123 145.297 21.4666C145.042 20.8073 144.914 20.1212 144.914 19.4082C144.914 18.3857 145.135 17.4574 145.578 16.6233C146.035 15.7758 146.685 15.0964 147.531 14.5851C148.376 14.0604 149.396 13.7981 150.591 13.7981C151.785 13.7981 152.798 14.0537 153.63 14.5649C154.475 15.0762 155.12 15.7488 155.562 16.583C156.005 17.4036 156.227 18.2983 156.227 19.2669C156.227 19.4553 156.213 19.6436 156.186 19.832C156.173 20.0069 156.16 20.1616 156.146 20.2961H148.336C148.376 20.767 148.504 21.1639 148.718 21.4867C148.947 21.8096 149.235 22.0585 149.584 22.2334C149.933 22.3949 150.302 22.4756 150.691 22.4756C151.174 22.4756 151.624 22.3612 152.04 22.1325C152.469 21.9038 152.764 21.5944 152.926 21.2042L155.663 21.9711C155.395 22.5227 155.012 23.0137 154.516 23.4442C154.033 23.8613 153.456 24.1909 152.785 24.4331C152.127 24.6752 151.396 24.7963 150.591 24.7963ZM148.256 18.3185H152.845C152.791 17.8745 152.664 17.4911 152.463 17.1682C152.261 16.8318 151.993 16.5762 151.657 16.4013C151.322 16.213 150.953 16.1188 150.55 16.1188C150.134 16.1188 149.759 16.213 149.423 16.4013C149.101 16.5762 148.839 16.8318 148.638 17.1682C148.437 17.4911 148.309 17.8745 148.256 18.3185Z" stroke="none"/>
<path d="M140.104 24.5946L137.346 20.3567L136.219 21.507V24.5946H132.999V9.86304H136.219V18.3791L139.802 14H143.204L139.4 18.5607L143.526 24.5946H140.104Z" fill="#D1D1D1"/>
<path d="M140.104 24.5946L137.346 20.3567L136.219 21.507V24.5946H132.999V9.86304H136.219V18.3791L139.802 14H143.204L139.4 18.5607L143.526 24.5946H140.104Z" stroke="none"/>
<path d="M124.134 24.7963C123.235 24.7963 122.43 24.6483 121.719 24.3523C121.021 24.0564 120.43 23.6528 119.947 23.1415C119.464 22.6303 119.095 22.0451 118.84 21.3858C118.599 20.7266 118.478 20.0338 118.478 19.3073C118.478 18.5673 118.599 17.8678 118.84 17.2085C119.095 16.5493 119.464 15.9641 119.947 15.4529C120.43 14.9416 121.021 14.538 121.719 14.2421C122.43 13.9461 123.235 13.7981 124.134 13.7981C125.033 13.7981 125.832 13.9461 126.53 14.2421C127.227 14.538 127.818 14.9416 128.301 15.4529C128.784 15.9641 129.153 16.5493 129.408 17.2085C129.663 17.8678 129.79 18.5673 129.79 19.3073C129.79 20.0338 129.663 20.7266 129.408 21.3858C129.153 22.0451 128.784 22.6303 128.301 23.1415C127.818 23.6528 127.227 24.0564 126.53 24.3523C125.832 24.6483 125.033 24.7963 124.134 24.7963ZM121.779 19.3073C121.779 19.8589 121.88 20.3432 122.081 20.7603C122.296 21.1773 122.577 21.5002 122.926 21.7289C123.275 21.9576 123.678 22.072 124.134 22.072C124.577 22.072 124.973 21.9576 125.322 21.7289C125.684 21.4867 125.966 21.1571 126.167 20.7401C126.368 20.323 126.469 19.8454 126.469 19.3073C126.469 18.7557 126.368 18.2714 126.167 17.8543C125.966 17.4373 125.684 17.1144 125.322 16.8857C124.973 16.657 124.577 16.5426 124.134 16.5426C123.678 16.5426 123.275 16.657 122.926 16.8857C122.577 17.1144 122.296 17.4373 122.081 17.8543C121.88 18.2714 121.779 18.7557 121.779 19.3073Z" fill="#D1D1D1"/>
<path d="M124.134 24.7963C123.235 24.7963 122.43 24.6483 121.719 24.3523C121.021 24.0564 120.43 23.6528 119.947 23.1415C119.464 22.6303 119.095 22.0451 118.84 21.3858C118.599 20.7266 118.478 20.0338 118.478 19.3073C118.478 18.5673 118.599 17.8678 118.84 17.2085C119.095 16.5493 119.464 15.9641 119.947 15.4529C120.43 14.9416 121.021 14.538 121.719 14.2421C122.43 13.9461 123.235 13.7981 124.134 13.7981C125.033 13.7981 125.832 13.9461 126.53 14.2421C127.227 14.538 127.818 14.9416 128.301 15.4529C128.784 15.9641 129.153 16.5493 129.408 17.2085C129.663 17.8678 129.79 18.5673 129.79 19.3073C129.79 20.0338 129.663 20.7266 129.408 21.3858C129.153 22.0451 128.784 22.6303 128.301 23.1415C127.818 23.6528 127.227 24.0564 126.53 24.3523C125.832 24.6483 125.033 24.7963 124.134 24.7963ZM121.779 19.3073C121.779 19.8589 121.88 20.3432 122.081 20.7603C122.296 21.1773 122.577 21.5002 122.926 21.7289C123.275 21.9576 123.678 22.072 124.134 22.072C124.577 22.072 124.973 21.9576 125.322 21.7289C125.684 21.4867 125.966 21.1571 126.167 20.7401C126.368 20.323 126.469 19.8454 126.469 19.3073C126.469 18.7557 126.368 18.2714 126.167 17.8543C125.966 17.4373 125.684 17.1144 125.322 16.8857C124.973 16.657 124.577 16.5426 124.134 16.5426C123.678 16.5426 123.275 16.657 122.926 16.8857C122.577 17.1144 122.296 17.4373 122.081 17.8543C121.88 18.2714 121.779 18.7557 121.779 19.3073Z" stroke="none"/>
<path d="M105.428 24.5945V10.2666H111.527C112.212 10.2666 112.836 10.4079 113.399 10.6904C113.976 10.9595 114.473 11.3294 114.889 11.8003C115.305 12.2577 115.627 12.7757 115.855 13.3542C116.083 13.9327 116.197 14.5246 116.197 15.13C116.197 15.9507 116.003 16.731 115.614 17.4709C115.238 18.2109 114.708 18.8163 114.023 19.2871C113.352 19.7446 112.554 19.9733 111.628 19.9733H108.729V24.5945H105.428ZM108.729 17.0875H111.427C111.682 17.0875 111.917 17.0135 112.131 16.8655C112.346 16.7175 112.52 16.4956 112.655 16.1996C112.789 15.9036 112.856 15.5404 112.856 15.1098C112.856 14.6659 112.775 14.3026 112.614 14.0201C112.467 13.7241 112.272 13.5089 112.031 13.3743C111.803 13.2398 111.561 13.1725 111.306 13.1725H108.729V17.0875Z" fill="#D1D1D1"/>
<path d="M105.428 24.5945V10.2666H111.527C112.212 10.2666 112.836 10.4079 113.399 10.6904C113.976 10.9595 114.473 11.3294 114.889 11.8003C115.305 12.2577 115.627 12.7757 115.855 13.3542C116.083 13.9327 116.197 14.5246 116.197 15.13C116.197 15.9507 116.003 16.731 115.614 17.4709C115.238 18.2109 114.708 18.8163 114.023 19.2871C113.352 19.7446 112.554 19.9733 111.628 19.9733H108.729V24.5945H105.428ZM108.729 17.0875H111.427C111.682 17.0875 111.917 17.0135 112.131 16.8655C112.346 16.7175 112.52 16.4956 112.655 16.1996C112.789 15.9036 112.856 15.5404 112.856 15.1098C112.856 14.6659 112.775 14.3026 112.614 14.0201C112.467 13.7241 112.272 13.5089 112.031 13.3743C111.803 13.2398 111.561 13.1725 111.306 13.1725H108.729V17.0875Z" stroke="none"/>
<path d="M95.1076 24.5945H91.8869V18.6413C91.8869 17.9418 91.7527 17.4373 91.4843 17.1278C91.2293 16.8049 90.8871 16.6435 90.4577 16.6435C90.1625 16.6435 89.8605 16.7242 89.5519 16.8857C89.2432 17.0471 88.9614 17.2691 88.7064 17.5516C88.4649 17.8341 88.277 18.157 88.1428 18.5203V24.5945H84.9221V13.9999H87.8207V15.7758C88.0891 15.3587 88.4246 15.0022 88.8272 14.7062C89.2298 14.4102 89.6928 14.1882 90.2161 14.0403C90.7395 13.8788 91.3098 13.7981 91.9271 13.7981C92.6115 13.7981 93.1617 13.9259 93.5777 14.1815C94.0072 14.4237 94.3292 14.7466 94.5439 15.1502C94.7721 15.5538 94.9197 15.991 94.9868 16.4619C95.0673 16.9193 95.1076 17.37 95.1076 17.814V24.5945Z" fill="#D1D1D1"/>
<path d="M95.1076 24.5945H91.8869V18.6413C91.8869 17.9418 91.7527 17.4373 91.4843 17.1278C91.2293 16.8049 90.8871 16.6435 90.4577 16.6435C90.1625 16.6435 89.8605 16.7242 89.5519 16.8857C89.2432 17.0471 88.9614 17.2691 88.7064 17.5516C88.4649 17.8341 88.277 18.157 88.1428 18.5203V24.5945H84.9221V13.9999H87.8207V15.7758C88.0891 15.3587 88.4246 15.0022 88.8272 14.7062C89.2298 14.4102 89.6928 14.1882 90.2161 14.0403C90.7395 13.8788 91.3098 13.7981 91.9271 13.7981C92.6115 13.7981 93.1617 13.9259 93.5777 14.1815C94.0072 14.4237 94.3292 14.7466 94.5439 15.1502C94.7721 15.5538 94.9197 15.991 94.9868 16.4619C95.0673 16.9193 95.1076 17.37 95.1076 17.814V24.5945Z" stroke="none"/>
<path d="M77.8862 24.5946V14H81.1069V24.5946H77.8862ZM77.8862 12.7892V9.86304H81.1069V12.7892H77.8862Z" fill="#d1d1d1"/>
<path d="M77.8862 24.5946V14H81.1069V24.5946H77.8862ZM77.8862 12.7892V9.86304H81.1069V12.7892H77.8862Z" stroke="none"/>
<path d="M69.0226 24.7963C68.1234 24.7963 67.3183 24.6483 66.607 24.3523C65.9092 24.0564 65.3188 23.6528 64.8357 23.1415C64.3525 22.6303 63.9835 22.0451 63.7285 21.3858C63.487 20.7266 63.3662 20.0338 63.3662 19.3073C63.3662 18.5673 63.487 17.8678 63.7285 17.2085C63.9835 16.5493 64.3525 15.9641 64.8357 15.4529C65.3188 14.9416 65.9092 14.538 66.607 14.2421C67.3183 13.9461 68.1234 13.7981 69.0226 13.7981C69.9217 13.7981 70.7201 13.9461 71.4179 14.2421C72.1158 14.538 72.7062 14.9416 73.1893 15.4529C73.6724 15.9641 74.0415 16.5493 74.2964 17.2085C74.5514 17.8678 74.6789 18.5673 74.6789 19.3073C74.6789 20.0338 74.5514 20.7266 74.2964 21.3858C74.0415 22.0451 73.6724 22.6303 73.1893 23.1415C72.7062 23.6528 72.1158 24.0564 71.4179 24.3523C70.7201 24.6483 69.9217 24.7963 69.0226 24.7963ZM66.6674 19.3073C66.6674 19.8589 66.7681 20.3432 66.9694 20.7603C67.1841 21.1773 67.4659 21.5002 67.8148 21.7289C68.1637 21.9576 68.5663 22.072 69.0226 22.072C69.4654 22.072 69.8613 21.9576 70.2102 21.7289C70.5725 21.4867 70.8543 21.1571 71.0556 20.7401C71.2569 20.323 71.3576 19.8454 71.3576 19.3073C71.3576 18.7557 71.2569 18.2714 71.0556 17.8543C70.8543 17.4373 70.5725 17.1144 70.2102 16.8857C69.8613 16.657 69.4654 16.5426 69.0226 16.5426C68.5663 16.5426 68.1637 16.657 67.8148 16.8857C67.4659 17.1144 67.1841 17.4373 66.9694 17.8543C66.7681 18.2714 66.6674 18.7557 66.6674 19.3073Z" fill="#D1D1D1"/>
<path d="M69.0226 24.7963C68.1234 24.7963 67.3183 24.6483 66.607 24.3523C65.9092 24.0564 65.3188 23.6528 64.8357 23.1415C64.3525 22.6303 63.9835 22.0451 63.7285 21.3858C63.487 20.7266 63.3662 20.0338 63.3662 19.3073C63.3662 18.5673 63.487 17.8678 63.7285 17.2085C63.9835 16.5493 64.3525 15.9641 64.8357 15.4529C65.3188 14.9416 65.9092 14.538 66.607 14.2421C67.3183 13.9461 68.1234 13.7981 69.0226 13.7981C69.9217 13.7981 70.7201 13.9461 71.4179 14.2421C72.1158 14.538 72.7062 14.9416 73.1893 15.4529C73.6724 15.9641 74.0415 16.5493 74.2964 17.2085C74.5514 17.8678 74.6789 18.5673 74.6789 19.3073C74.6789 20.0338 74.5514 20.7266 74.2964 21.3858C74.0415 22.0451 73.6724 22.6303 73.1893 23.1415C72.7062 23.6528 72.1158 24.0564 71.4179 24.3523C70.7201 24.6483 69.9217 24.7963 69.0226 24.7963ZM66.6674 19.3073C66.6674 19.8589 66.7681 20.3432 66.9694 20.7603C67.1841 21.1773 67.4659 21.5002 67.8148 21.7289C68.1637 21.9576 68.5663 22.072 69.0226 22.072C69.4654 22.072 69.8613 21.9576 70.2102 21.7289C70.5725 21.4867 70.8543 21.1571 71.0556 20.7401C71.2569 20.323 71.3576 19.8454 71.3576 19.3073C71.3576 18.7557 71.2569 18.2714 71.0556 17.8543C70.8543 17.4373 70.5725 17.1144 70.2102 16.8857C69.8613 16.657 69.4654 16.5426 69.0226 16.5426C68.5663 16.5426 68.1637 16.657 67.8148 16.8857C67.4659 17.1144 67.1841 17.4373 66.9694 17.8543C66.7681 18.2714 66.6674 18.7557 66.6674 19.3073Z" stroke="none"/>
<path d="M48.0364 17.3091C48.0364 16.4347 48.1974 15.5804 48.5195 14.7463C48.8416 13.8987 49.3112 13.1319 49.9285 12.4457C50.5458 11.7596 51.2973 11.2147 52.183 10.8111C53.0687 10.3941 54.0752 10.1855 55.2024 10.1855C56.5444 10.1855 57.7052 10.4748 58.6848 11.0533C59.6778 11.6318 60.4159 12.3852 60.899 13.3135L58.3627 15.0893C58.148 14.5781 57.8595 14.1812 57.4972 13.8987C57.1483 13.6162 56.7591 13.4211 56.3297 13.3135C55.9137 13.1924 55.5111 13.1319 55.1219 13.1319C54.4912 13.1319 53.941 13.2597 53.4713 13.5153C53.0016 13.7574 52.6124 14.087 52.3038 14.5041C51.9951 14.9212 51.767 15.3853 51.6194 15.8965C51.4718 16.4078 51.398 16.919 51.398 17.4302C51.398 17.9953 51.4852 18.5401 51.6597 19.0648C51.8341 19.5895 52.0824 20.0537 52.4044 20.4573C52.7399 20.8609 53.1425 21.1837 53.6122 21.4259C54.0819 21.6546 54.5985 21.769 55.1622 21.769C55.5647 21.769 55.974 21.7017 56.39 21.5672C56.8061 21.4326 57.1885 21.2241 57.5374 20.9416C57.8997 20.6456 58.1749 20.2622 58.3627 19.7913L61.0601 21.3855C60.7782 22.0851 60.3153 22.6838 59.6711 23.1816C59.027 23.6794 58.2956 24.0628 57.477 24.3319C56.6719 24.5875 55.8734 24.7153 55.0816 24.7153C54.0483 24.7153 53.0955 24.5067 52.2233 24.0897C51.3644 23.6592 50.6196 23.0941 49.9889 22.3946C49.3716 21.6815 48.8885 20.8878 48.5396 20.0133C48.2041 19.1254 48.0364 18.224 48.0364 17.3091Z" fill="#d1d1d1"/>
<path d="M48.0364 17.3091C48.0364 16.4347 48.1974 15.5804 48.5195 14.7463C48.8416 13.8987 49.3112 13.1319 49.9285 12.4457C50.5458 11.7596 51.2973 11.2147 52.183 10.8111C53.0687 10.3941 54.0752 10.1855 55.2024 10.1855C56.5444 10.1855 57.7052 10.4748 58.6848 11.0533C59.6778 11.6318 60.4159 12.3852 60.899 13.3135L58.3627 15.0893C58.148 14.5781 57.8595 14.1812 57.4972 13.8987C57.1483 13.6162 56.7591 13.4211 56.3297 13.3135C55.9137 13.1924 55.5111 13.1319 55.1219 13.1319C54.4912 13.1319 53.941 13.2597 53.4713 13.5153C53.0016 13.7574 52.6124 14.087 52.3038 14.5041C51.9951 14.9212 51.767 15.3853 51.6194 15.8965C51.4718 16.4078 51.398 16.919 51.398 17.4302C51.398 17.9953 51.4852 18.5401 51.6597 19.0648C51.8341 19.5895 52.0824 20.0537 52.4044 20.4573C52.7399 20.8609 53.1425 21.1837 53.6122 21.4259C54.0819 21.6546 54.5985 21.769 55.1622 21.769C55.5647 21.769 55.974 21.7017 56.39 21.5672C56.8061 21.4326 57.1885 21.2241 57.5374 20.9416C57.8997 20.6456 58.1749 20.2622 58.3627 19.7913L61.0601 21.3855C60.7782 22.0851 60.3153 22.6838 59.6711 23.1816C59.027 23.6794 58.2956 24.0628 57.477 24.3319C56.6719 24.5875 55.8734 24.7153 55.0816 24.7153C54.0483 24.7153 53.0955 24.5067 52.2233 24.0897C51.3644 23.6592 50.6196 23.0941 49.9889 22.3946C49.3716 21.6815 48.8885 20.8878 48.5396 20.0133C48.2041 19.1254 48.0364 18.224 48.0364 17.3091Z" stroke="none"/>
<path d="M19.972 0L23.235 12.0055L33.5996 1.92088L24.9624 15.4631L37.428 12.9099L25.5382 18.2484L24.1662 35L20.7113 19.5369L10.4366 35L17.0825 18.2484L0 21.9027L15.5574 15.0789L9.1275 0L18.618 12.9099L19.972 0Z" fill="white"/>
<path d="M19.972 0L23.235 12.0055L33.5996 1.92088L24.9624 15.4631L37.428 12.9099L25.5382 18.2484L24.1662 35L20.7113 19.5369L10.4366 35L17.0825 18.2484L0 21.9027L15.5574 15.0789L9.1275 0L18.618 12.9099L19.972 0Z" stroke="white"/>
</svg>
