<svg width="24" height="24" viewBox="0 0 24 24" fill="#d1d1d1" xmlns="http://www.w3.org/2000/svg">
<g clip-path="url(#clip0_43_161)">
<path d="M11.9999 2.62744C6.83191 2.62744 2.62744 6.83191 2.62744 11.9999C2.62744 17.1679 6.83191 21.3723 11.9999 21.3723C17.1679 21.3723 21.3723 17.1679 21.3723 11.9999C21.3723 6.83191 17.1679 2.62744 11.9999 2.62744ZM7.14199 18.3089C7.35287 17.2273 8.04108 16.2979 9.03472 15.7776L9.84883 15.3513C10.3016 15.1143 10.6063 14.6889 10.6846 14.1843C10.7635 13.6758 10.6004 13.1737 10.237 12.8067C9.77439 12.3395 9.51963 11.7202 9.51963 11.0629V10.0077C9.51963 8.64009 10.6322 7.52748 11.9999 7.52748C13.3675 7.52748 14.4801 8.64009 14.4801 10.0077V11.0629C14.4801 11.7202 14.2253 12.3395 13.7627 12.8067C13.3994 13.1737 13.2362 13.6757 13.3151 14.1843C13.3935 14.6889 13.698 15.1143 14.1508 15.3513L14.965 15.7776C15.9591 16.2981 16.6474 17.2275 16.8579 18.3088C15.5124 19.3474 13.8271 19.9662 11.9999 19.9662C10.1727 19.9662 8.48751 19.3474 7.14199 18.3089ZM18.0075 17.2257C17.5764 16.0802 16.7372 15.1181 15.6174 14.5318L14.8032 14.1056C14.7338 14.0692 14.7113 14.011 14.7047 13.9686C14.699 13.9316 14.6988 13.8599 14.7619 13.7962C15.487 13.0639 15.8863 12.0933 15.8863 11.0629V10.0077C15.8863 7.86469 14.1429 6.12126 11.9999 6.12126C9.85689 6.12126 8.11341 7.86469 8.11341 10.0077V11.0629C8.11341 12.0932 8.51273 13.0639 9.23778 13.7962C9.30097 13.8599 9.30073 13.9316 9.29501 13.9686C9.2884 14.011 9.266 14.0692 9.19653 14.1056L8.38237 14.5318C7.26288 15.118 6.42369 16.0801 5.9924 17.226C4.77306 15.8261 4.03362 13.9978 4.03362 11.9999C4.03362 7.60735 7.60726 4.03371 11.9998 4.03371C16.3924 4.03371 19.9661 7.60735 19.9661 11.9999C19.9662 13.9977 19.2268 15.8259 18.0075 17.2257Z" fill="#d1d1d1"/>
<path d="M20.4853 3.51472C18.2188 1.24821 15.2053 0 12 0C8.79468 0 5.78123 1.24821 3.51472 3.51472C1.24821 5.78123 0 8.79467 0 12C0 15.2054 1.24821 18.2188 3.51472 20.4853C5.78123 22.7518 8.79468 24 12 24C15.2053 24 18.2188 22.7518 20.4852 20.4853C22.7518 18.2188 24 15.2053 24 12C24 8.79472 22.7518 5.78123 20.4853 3.51472ZM19.4909 19.4909C17.49 21.4919 14.8297 22.5938 12 22.5938C9.17028 22.5938 6.50993 21.4918 4.50906 19.4909C2.50819 17.4901 1.40623 14.8297 1.40623 12C1.40623 9.17037 2.50819 6.50998 4.50906 4.50911C6.50993 2.50824 9.17032 1.40623 12 1.40623C14.8297 1.40623 17.49 2.50819 19.4909 4.50906C21.4919 6.50993 22.5938 9.17028 22.5938 12C22.5938 14.8297 21.4918 17.49 19.4909 19.4909Z" fill="#d1d1d1"/>
</g>
<defs>
<clipPath id="clip0_43_161">
<rect width="24" height="24" fill="#d1d1d1"/>
</clipPath>
</defs>
</svg>
